<svg aria-hidden="true" style="position: absolute; width: 0; height: 0; overflow: hidden;" version="1.1" xmlns="http://www.w3.org/2000/svg" xmlns:xlink="http://www.w3.org/1999/xlink">
<defs>
<symbol id="icon-campfire" viewBox="0 0 24 32">
<path fill="#ff6b09" style="fill: var(--color1, #ff6b09)" d="M22.474 16.593c-0.271-0.635-0.645-1.261-1.192-1.983-1.379-1.813-1.8-5.857-1.805-5.896-0.019-0.194-0.15-0.354-0.323-0.412-0.178-0.058-0.369-0.005-0.496 0.141-1.646 1.925-0.954 4.897-0.58 6.085 0.103 0.325 0.215 0.708 0.294 1.096 0.608 3.137-0.566 4.558-0.841 4.844-0.267 0.078-0.449 0.039-0.617-0.15-0.58-0.664-0.772-2.841-0.5-5.678 0.056-0.577 0.042-1.096-0.037-1.581-0.572-3.486-2.669-5.722-3.202-6.507-1.468-2.269-1.618-6.046-1.622-6.080-0.005-0.179-0.103-0.339-0.257-0.417-0.15-0.078-0.332-0.068-0.472 0.034-2.45 1.741-2.239 5.935-1.898 8.276 0.079 0.543 0.234 1.096 0.5 1.794 0.949 2.497-0.187 5.721-0.196 5.75s-0.019 0.053-0.023 0.082c-0.145 0.795-0.388 1.27-0.659 1.27-0.028 0-0.056-0.005-0.089-0.015-0.332-0.073-0.505-0.441-0.51-0.761-0.019-4.136-3.988-5.527-4.030-5.542-0.178-0.058-0.374-0.005-0.496 0.145-0.126 0.15-0.15 0.359-0.065 0.533 0.047 0.102 0.196 0.548 0.094 2.124-0.089 1.416-0.337 2.817-0.734 4.16-0.944 3.219-0.795 6.269-0.785 6.415 0.726 8.257 12.082 9.704 18.822 5.052 0.739-0.509 1.342-1.091 1.786-1.731 2.487-3.588 1.024-8.46-0.065-11.050zM5.199 24.481c0.014 0.267-0.182 0.495-0.439 0.509h-0.028c-0.248 0-0.454-0.199-0.468-0.456-0.042-0.708-0.033-1.45 0.019-2.255 0.019-0.267 0.243-0.465 0.5-0.451 0.257 0.019 0.454 0.252 0.435 0.519-0.051 0.766-0.061 1.464-0.019 2.133zM5.428 20.185c-0.028 0.247-0.229 0.427-0.463 0.427-0.019 0-0.037 0-0.061-0.005-0.252-0.034-0.435-0.272-0.407-0.538l0.224-1.872c0.033-0.262 0.262-0.451 0.524-0.422 0.257 0.034 0.439 0.276 0.407 0.543l-0.224 1.867z"></path>
<path fill="#ff6b09" style="fill: var(--color1, #ff6b09)" d="M19.312 6.633c-0.255-0.041-0.43-0.288-0.391-0.553 0.029-0.197 0.198-1.205 0.656-1.713 0.176-0.196 0.472-0.206 0.661-0.022s0.198 0.49 0.021 0.685c-0.194 0.215-0.359 0.829-0.415 1.197-0.040 0.262-0.275 0.445-0.534 0.405z"></path>
<path fill="#ff6b09" style="fill: var(--color1, #ff6b09)" d="M2.267 9.048c-0.090-0.361-0.312-0.955-0.525-1.149-0.194-0.177-0.214-0.483-0.043-0.684s0.465-0.222 0.66-0.045c0.504 0.458 0.767 1.445 0.815 1.638 0.064 0.259-0.087 0.523-0.336 0.59-0.255 0.067-0.506-0.094-0.569-0.349z"></path>
</symbol>
<symbol id="icon-EN" viewBox="0 0 64 32">
<path fill="#e5e5e5" style="fill: var(--color2, #e5e5e5)" d="M0 0h64v32h-64v-32z"></path>
<path fill="#fff" style="fill: var(--color3, #fff)" d="M-202.667-93.333h853.333v24226.667h-853.333v-24226.667z"></path>
<path fill="#fff" style="fill: var(--color3, #fff)" d="M746.184 1137.285c-442.712 173.485-692.15 12.893-834.483 25.064-40.849 3.493-77.738 12.504-111.701 23.243-66.378 20.981-121.581 48.557-173.333 54.408v-1333.333h2048v944.589c-57.733-11.008-283.821 172.829-412.389 209.853-189.213 25.064-73.381-97.309-516.093 76.176z"></path>
<path fill="#111518" style="fill: var(--color4, #111518)" d="M27.617 25.006v6.994h-25.062v-32h24.482v6.994h-15.742v5.394h13.869v6.766h-13.869v5.851h16.321z"></path>
<path fill="#111518" style="fill: var(--color4, #111518)" d="M64 0v32h-7.269l-13.779-17.051v17.051h-8.651v-32h7.269l13.779 17.051v-17.051h8.651z"></path>
</symbol>
<symbol id="icon-Hell" viewBox="0 0 89 32">
<path d="M27.881 1.79v29.827h-8.289v-11.632h-11.303v11.632h-8.289v-29.827h8.289v11.206h11.303v-11.206h8.289z"></path>
<path d="M58.217 20.112c0 0.057-0.042 0.724-0.126 2.003h-16.494c0.335 1.193 0.977 2.116 1.926 2.77 0.977 0.625 2.191 0.937 3.642 0.937 1.089 0 2.023-0.156 2.805-0.469 0.809-0.312 1.619-0.824 2.428-1.534l4.186 4.431c-2.205 2.5-5.428 3.75-9.67 3.75-2.651 0-4.982-0.511-6.991-1.534s-3.572-2.443-4.688-4.261c-1.089-1.818-1.633-3.878-1.633-6.178 0-2.273 0.53-4.304 1.591-6.093 1.088-1.818 2.581-3.238 4.479-4.261s4.033-1.534 6.405-1.534c2.261 0 4.312 0.483 6.154 1.449 1.842 0.937 3.293 2.315 4.354 4.133 1.089 1.79 1.633 3.92 1.633 6.391zM46.119 13.891c-1.228 0-2.261 0.355-3.098 1.065-0.809 0.71-1.326 1.676-1.549 2.897h9.294c-0.223-1.221-0.753-2.187-1.591-2.897-0.809-0.71-1.828-1.065-3.056-1.065z"></path>
<path d="M63.559 0h7.954v31.616h-7.954v-31.616z"></path>
<path d="M78.357 0h7.954v31.616h-7.954v-31.616z"></path>
</symbol>
<symbol id="icon-ampfire-circumcised" viewBox="0 0 23 32">
<path fill="#ff6b09" style="fill: var(--color1, #ff6b09)" d="M19.905 16.593c-0.284-0.635-0.676-1.261-1.249-1.983-1.444-1.813-1.885-5.857-1.89-5.896-0.020-0.194-0.157-0.354-0.338-0.412-0.186-0.058-0.387-0.005-0.519 0.141-1.724 1.925-0.999 4.897-0.607 6.085 0.108 0.325 0.225 0.708 0.308 1.096 0.636 3.137-0.593 4.558-0.881 4.844-0.279 0.078-0.47 0.039-0.646-0.15-0.607-0.664-0.808-2.841-0.524-5.678 0.059-0.577 0.044-1.096-0.039-1.581-0.599-3.486-2.795-5.722-3.354-6.507-1.537-2.269-1.694-6.046-1.699-6.080-0.005-0.179-0.108-0.339-0.269-0.417-0.157-0.078-0.348-0.068-0.495 0.034-2.566 1.741-2.345 5.935-1.988 8.276 0.083 0.543 0.245 1.096 0.524 1.794 0.994 2.497-0.196 5.721-0.206 5.75s-0.020 0.053-0.024 0.082c-0.152 0.795-0.406 1.27-0.69 1.27-0.029 0-0.059-0.005-0.093-0.015-0.348-0.073-0.529-0.441-0.534-0.761-0.020-4.136-4.177-5.527-4.221-5.542-0.186-0.058-0.392-0.005-0.519 0.146-0.132 0.15-0.157 0.359-0.069 0.533 0.049 0.102 0.206 0.548 0.098 2.124-0.093 1.416-0.353 2.817-0.769 4.16-0.989 3.219-0.832 6.269-0.823 6.415 0.761 8.257 12.654 9.704 19.713 5.052 0.774-0.509 1.405-1.091 1.87-1.731 2.605-3.588 1.072-8.461-0.068-11.050zM1.813 24.481c0.015 0.267-0.191 0.495-0.46 0.509h-0.029c-0.26 0-0.475-0.199-0.49-0.456-0.044-0.708-0.034-1.45 0.020-2.255 0.020-0.267 0.255-0.465 0.524-0.451 0.269 0.019 0.475 0.252 0.455 0.519-0.054 0.766-0.064 1.464-0.020 2.133zM2.053 20.185c-0.029 0.247-0.24 0.427-0.485 0.427-0.020 0-0.039 0-0.064-0.005-0.264-0.034-0.455-0.271-0.426-0.538l0.235-1.872c0.034-0.262 0.274-0.451 0.548-0.422 0.269 0.034 0.46 0.276 0.426 0.543l-0.235 1.867z"></path>
<path fill="#ff6b09" style="fill: var(--color1, #ff6b09)" d="M16.593 6.633c-0.267-0.041-0.45-0.288-0.409-0.553 0.031-0.197 0.207-1.205 0.688-1.713 0.185-0.196 0.494-0.206 0.692-0.022s0.207 0.49 0.022 0.685c-0.203 0.215-0.376 0.829-0.434 1.197-0.041 0.262-0.288 0.445-0.559 0.405z"></path>
</symbol>
</defs>
</svg>
